# xmcd CD database file
# Copyright (C) 1993-1998 Ti Kan
#
# Track frame offsets:
#  150
#  19718
#  39248
#  56745
#  70245
#  95095
#  114643
#  136410
#  154315
#  173633
#  189870
#  207060
#
# Disc length: 3055 seconds
#
# Revision: 1
# Processed by: cddbd v1.4b41PL1 Copyright (c) Steve Scherf et al.
# Submitted via: CDWizzard Release:4.35
#
DISCID=9f0bed0c
DTITLE=Dorothy Moore - Stay Close to Home
DYEAR=1900
DGENRE=
TTITLE0=Read Me My Rights
TTITLE1=Blues In the Night
TTITLE2=I'll Always Love You
TTITLE3=Do Ya?
TTITLE4=You Can't Blame Love
TTITLE5=Till the End of Time
TTITLE6=Stay Close to Home
TTITLE7=I Betcha' Didn't Know That
TTITLE8=It's Rainin' On My Side of the Bed
TTITLE9=What You Won't Do for Love
TTITLE10=A Woman Without Love
TTITLE11=Before I Fall In Love Again
EXTD=
EXTT0=
EXTT1=
EXTT2=
EXTT3=
EXTT4=
EXTT5=
EXTT6=
EXTT7=
EXTT8=
EXTT9=
EXTT10=
EXTT11=
PLAYORDER=
